<svg xmlns="http://www.w3.org/2000/svg" viewBox="0 0 256 197.24867724867724" clip-path="url(#clip)" width="512" height="394.4973544973545"><defs><clipPath id="clip" clipPathUnits="objectBoundingBox"><rect x="0" y="0" width="256" height="197.24867724867724"/></clipPath></defs><rect x="0" y="0" width="256" height="197.24867724867724" fill="rgb(144, 156, 152)"/><path d="M-113,172L526,169L-8,68Z" fill="rgb(6, 30, 8)" fill-opacity="0.78"/><path d="M316,-18L-55,-1L133,119Z" fill="rgb(229, 242, 255)" fill-opacity="0.66"/><path d="M142,146L110,147L347,468Z" fill="rgb(255, 224, 175)" fill-opacity="0.60"/><path d="M426,51L208,173L159,86Z" fill="rgb(0, 19, 16)" fill-opacity="0.74"/><path d="M-90,30L161,136L47,57Z" fill="rgb(60, 91, 77)" fill-opacity="0.63"/><path d="M221,69L183,67L121,129Z" fill="rgb(106, 135, 132)" fill-opacity="0.62"/><path d="M-104,111L-4,38L51,81Z" fill="rgb(21, 43, 15)" fill-opacity="0.65"/><path d="M115,152L122,224L155,153Z" fill="rgb(175, 157, 112)" fill-opacity="0.94"/><path d="M179,201L76,169L30,196Z" fill="rgb(252, 246, 241)" fill-opacity="0.51"/><path d="M180,277L142,171L186,171Z" fill="rgb(215, 218, 213)" fill-opacity="0.83"/><path d="M269,172L289,3L213,172Z" fill="rgb(3, 21, 17)" fill-opacity="0.86"/><path d="M-4,32L104,83L38,68Z" fill="rgb(176, 193, 196)" fill-opacity="0.67"/><path d="M75,109L129,132L104,171Z" fill="rgb(10, 36, 29)" fill-opacity="0.97"/><path d="M308,-3L280,54L172,74Z" fill="rgb(180, 197, 200)" fill-opacity="0.87"/><path d="M256,171L147,114L160,171Z" fill="rgb(4, 23, 16)" fill-opacity="0.89"/><path d="M146,152L146,181L121,144Z" fill="rgb(251, 206, 127)" fill-opacity="0.42"/><path d="M108,191L120,171L32,172Z" fill="rgb(213, 215, 211)" fill-opacity="0.90"/><path d="M119,176L143,179L121,183Z" fill="rgb(21, 18, 4)" fill-opacity="0.55"/><path d="M173,91L99,105L245,-321Z" fill="rgb(215, 229, 236)" fill-opacity="0.33"/><path d="M55,113L38,125L-68,108Z" fill="rgb(7, 30, 4)" fill-opacity="0.62"/><path d="M243,189L182,79L241,70Z" fill="rgb(0, 34, 32)" fill-opacity="0.28"/><path d="M65,114L-66,171L116,171Z" fill="rgb(22, 45, 16)" fill-opacity="0.94"/><path d="M34,46L67,93L115,102Z" fill="rgb(133, 158, 157)" fill-opacity="0.46"/><path d="M9,191L24,171L-40,171Z" fill="rgb(161, 168, 163)" fill-opacity="1.00"/><path d="M136,123L96,98L159,118Z" fill="rgb(95, 125, 126)" fill-opacity="0.46"/><path d="M149,166L156,164L147,155Z" fill="rgb(0, 5, 0)" fill-opacity="0.60"/><path d="M158,157L154,153L155,174Z" fill="rgb(145, 133, 90)" fill-opacity="1.00"/><path d="M260,177L181,182L282,204Z" fill="rgb(121, 127, 118)" fill-opacity="0.65"/><path d="M201,159L161,171L146,170Z" fill="rgb(14, 30, 23)" fill-opacity="0.93"/><path d="M126,178L116,220L150,210Z" fill="rgb(5, 12, 0)" fill-opacity="0.19"/><path d="M220,58L272,73L213,86Z" fill="rgb(115, 145, 147)" fill-opacity="0.40"/><path d="M28,66L36,71L41,39Z" fill="rgb(180, 194, 198)" fill-opacity="0.34"/><path d="M142,119L175,103L177,86Z" fill="rgb(54, 86, 86)" fill-opacity="0.68"/><path d="M57,170L34,222L20,194Z" fill="rgb(160, 165, 159)" fill-opacity="0.99"/><path d="M-14,115L82,108L43,72Z" fill="rgb(43, 85, 19)" fill-opacity="0.51"/><path d="M109,188L32,205L86,171Z" fill="rgb(222, 223, 222)" fill-opacity="0.68"/><path d="M122,138L207,90L192,171Z" fill="rgb(6, 27, 22)" fill-opacity="0.78"/><path d="M-25,12L132,-116L146,116Z" fill="rgb(211, 223, 231)" fill-opacity="0.39"/><path d="M36,122L-8,134L83,125Z" fill="rgb(72, 116, 43)" fill-opacity="0.40"/><path d="M143,154L134,159L160,154Z" fill="rgb(250, 240, 198)" fill-opacity="0.50"/><path d="M116,173L139,146L118,148Z" fill="rgb(207, 175, 109)" fill-opacity="0.78"/><path d="M148,102L159,84L235,54Z" fill="rgb(148, 170, 163)" fill-opacity="0.57"/><path d="M41,153L116,170L117,142Z" fill="rgb(9, 28, 19)" fill-opacity="0.72"/><path d="M140,149L139,156L123,156Z" fill="rgb(184, 121, 24)" fill-opacity="0.53"/><path d="M113,146L122,116L145,146Z" fill="rgb(11, 42, 42)" fill-opacity="0.56"/><path d="M134,159L124,177L118,157Z" fill="rgb(172, 146, 85)" fill-opacity="0.82"/><path d="M73,93L64,114L98,91Z" fill="rgb(59, 93, 77)" fill-opacity="0.50"/><path d="M1,43L-12,60L19,50Z" fill="rgb(82, 108, 53)" fill-opacity="0.64"/><path d="M206,73L178,91L247,86Z" fill="rgb(41, 73, 72)" fill-opacity="0.47"/><path d="M-9,-21L1,44L43,52Z" fill="rgb(210, 217, 227)" fill-opacity="0.42"/><path d="M162,107L337,123L275,77Z" fill="rgb(12, 39, 35)" fill-opacity="0.75"/><path d="M143,182L154,214L126,197Z" fill="rgb(196, 191, 169)" fill-opacity="0.80"/><path d="M114,171L48,171L119,179Z" fill="rgb(228, 229, 228)" fill-opacity="0.64"/><path d="M241,71L282,45L179,70Z" fill="rgb(157, 176, 177)" fill-opacity="0.51"/><path d="M20,97L23,106L-46,90Z" fill="rgb(24, 49, 20)" fill-opacity="0.87"/><path d="M207,193L183,170L173,223Z" fill="rgb(168, 173, 156)" fill-opacity="0.52"/><path d="M70,97L57,109L50,103Z" fill="rgb(71, 116, 49)" fill-opacity="0.61"/><path d="M12,102L26,112L12,105Z" fill="rgb(125, 167, 125)" fill-opacity="0.54"/><path d="M51,82L23,87L56,92Z" fill="rgb(99, 150, 14)" fill-opacity="0.28"/><path d="M21,96L21,93L33,99Z" fill="rgb(96, 143, 80)" fill-opacity="0.56"/><path d="M145,188L146,150L140,147Z" fill="rgb(210, 193, 153)" fill-opacity="1.00"/><path d="M57,144L70,169L80,169Z" fill="rgb(1, 10, 9)" fill-opacity="0.73"/><path d="M32,163L46,171L62,157Z" fill="rgb(39, 69, 18)" fill-opacity="0.73"/><path d="M96,177L113,179L147,194Z" fill="rgb(194, 192, 175)" fill-opacity="1.00"/><path d="M46,171L10,175L58,180Z" fill="rgb(175, 180, 172)" fill-opacity="0.71"/><path d="M147,130L87,92L109,129Z" fill="rgb(30, 65, 70)" fill-opacity="0.54"/><path d="M252,172L174,171L281,180Z" fill="rgb(224, 221, 191)" fill-opacity="0.28"/><path d="M130,194L123,190L130,188Z" fill="rgb(84, 73, 30)" fill-opacity="0.48"/><path d="M148,182L122,181L139,177Z" fill="rgb(51, 44, 29)" fill-opacity="0.43"/><path d="M29,56L10,90L-59,60Z" fill="rgb(22, 34, 27)" fill-opacity="0.30"/><path d="M144,147L151,177L133,174Z" fill="rgb(228, 211, 165)" fill-opacity="0.28"/><path d="M142,179L155,171L188,178Z" fill="rgb(225, 226, 225)" fill-opacity="0.69"/><path d="M84,99L143,142L74,116Z" fill="rgb(16, 50, 44)" fill-opacity="0.70"/><path d="M-43,119L10,119L-1,106Z" fill="rgb(0, 10, 7)" fill-opacity="0.75"/><path d="M47,51L22,52L56,78Z" fill="rgb(159, 177, 178)" fill-opacity="0.51"/><path d="M7,132L11,132L7,124Z" fill="rgb(161, 242, 140)" fill-opacity="0.34"/><path d="M-16,151L22,143L7,131Z" fill="rgb(5, 28, 10)" fill-opacity="0.69"/><path d="M266,42L178,66L273,12Z" fill="rgb(192, 206, 211)" fill-opacity="0.66"/><path d="M151,101L96,95L106,18Z" fill="rgb(200, 213, 219)" fill-opacity="0.43"/><path d="M158,94L200,72L151,111Z" fill="rgb(99, 124, 120)" fill-opacity="0.53"/><path d="M79,75L32,66L87,94Z" fill="rgb(109, 134, 129)" fill-opacity="0.48"/><path d="M-20,164L15,146L47,161Z" fill="rgb(47, 74, 15)" fill-opacity="0.42"/><path d="M207,194L197,199L223,204Z" fill="rgb(94, 108, 100)" fill-opacity="0.50"/><path d="M121,82L278,-105L186,76Z" fill="rgb(207, 220, 228)" fill-opacity="0.37"/><path d="M157,131L331,162L157,171Z" fill="rgb(5, 23, 15)" fill-opacity="0.84"/><path d="M8,93L-14,98L3,90Z" fill="rgb(94, 119, 16)" fill-opacity="0.55"/><path d="M148,154L139,139L173,128Z" fill="rgb(4, 20, 19)" fill-opacity="0.86"/><path d="M61,55L47,58L75,84Z" fill="rgb(165, 183, 181)" fill-opacity="0.36"/><path d="M253,66L292,105L244,81Z" fill="rgb(65, 99, 94)" fill-opacity="0.36"/><path d="M49,73L69,92L62,105Z" fill="rgb(0, 30, 35)" fill-opacity="0.28"/><path d="M209,190L204,177L190,186Z" fill="rgb(97, 113, 109)" fill-opacity="0.42"/><path d="M31,107L24,110L24,114Z" fill="rgb(152, 187, 145)" fill-opacity="0.35"/><path d="M28,177L1,195L58,185Z" fill="rgb(134, 139, 141)" fill-opacity="0.46"/><path d="M28,172L71,113L62,99Z" fill="rgb(21, 49, 10)" fill-opacity="0.56"/><path d="M219,171L208,188L207,171Z" fill="rgb(159, 165, 156)" fill-opacity="0.51"/><path d="M29,95L18,92L36,87Z" fill="rgb(16, 40, 3)" fill-opacity="0.51"/><path d="M229,186L251,186L233,176Z" fill="rgb(98, 107, 107)" fill-opacity="0.55"/><path d="M285,70L218,81L217,75Z" fill="rgb(92, 115, 113)" fill-opacity="0.63"/><path d="M148,157L148,166L155,157Z" fill="rgb(0, 24, 10)" fill-opacity="0.73"/></svg>